# Blender v2.93.5 OBJ File: 'ProyectoEscenario.blend'
# www.blender.org
mtllib estrella.mtl
o Star
v -46.036324 5.290025 -58.991310
v -46.036324 5.175964 -59.598167
v -45.442257 5.067471 -59.263626
v -44.877110 5.651520 -59.373402
v -45.692566 5.737113 -59.389492
v -46.083118 6.445830 -59.522697
v -46.417938 5.710081 -59.384411
v -47.224457 5.564043 -59.356960
v -46.615929 5.023732 -59.255405
v -46.723835 4.224758 -59.105236
v -46.012924 4.626577 -59.180759
v -45.273098 4.278822 -59.115398
vt 0.670333 0.395664
vt 0.498232 0.449352
vt 0.769884 0.082770
vt 0.929599 0.593633
vt 0.605189 0.591223
vt 0.502202 0.901745
vt 0.399938 0.591429
vt 0.074066 0.587495
vt 0.336076 0.399978
vt 0.233883 0.083180
vt 0.503020 0.280372
vt 0.498770 0.462794
vt 0.665667 0.396621
vt 0.932942 0.593130
vt 0.768912 0.080689
vt 0.500698 0.274682
vt 0.230765 0.082120
vt 0.333635 0.395800
vt 0.067093 0.592719
vt 0.395964 0.592654
vt 0.500384 0.907344
vt 0.600442 0.593169
vn 0.4813 0.2605 0.8370
vn 0.3564 -0.1723 0.9183
vn 0.0522 0.6415 0.7654
vn 0.4325 0.3910 0.8124
vn -0.4490 0.3582 0.8186
vn -0.0891 0.6362 0.7663
vn -0.3297 -0.1978 0.9231
vn -0.4876 0.2244 0.8437
vn 0.2452 -0.2582 0.9345
vn -0.2122 -0.2752 0.9377
vn 0.4812 -0.0611 -0.8745
vn 0.3564 -0.4939 -0.7931
vn 0.0522 0.3198 -0.9460
vn 0.4325 0.0694 -0.8990
vn -0.4490 0.0365 -0.8928
vn -0.0891 0.3145 -0.9451
vn -0.3297 -0.5195 -0.7883
vn -0.4876 -0.0972 -0.8677
vn 0.2452 -0.5799 -0.7769
vn -0.2122 -0.5969 -0.7737
usemtl Material.004
s off
f 3/1/1 1/2/1 12/3/1
f 1/2/2 3/1/2 4/4/2
f 1/2/3 4/4/3 5/5/3
f 1/2/4 5/5/4 6/6/4
f 1/2/5 6/6/5 7/7/5
f 1/2/6 7/7/6 8/8/6
f 1/2/7 8/8/7 9/9/7
f 1/2/8 9/9/8 10/10/8
f 1/2/9 10/10/9 11/11/9
f 1/2/10 11/11/10 12/3/10
f 2/12/11 3/13/11 12/14/11
f 3/13/12 2/12/12 4/15/12
f 4/15/13 2/12/13 5/16/13
f 5/16/14 2/12/14 6/17/14
f 6/17/15 2/12/15 7/18/15
f 7/18/16 2/12/16 8/19/16
f 8/19/17 2/12/17 9/20/17
f 9/20/18 2/12/18 10/21/18
f 10/21/19 2/12/19 11/22/19
f 11/22/20 2/12/20 12/14/20
