# Blender v2.93.5 OBJ File: 'ProyectoEscenario.blend'
# www.blender.org
mtllib mesa.mtl
o Mesa_Plane
v -28.046022 0.500009 -43.642090
v -25.046022 0.500009 -43.642090
v -28.046022 0.500009 -45.642090
v -25.046022 0.500009 -45.642090
v -28.046022 1.138432 -43.642090
v -25.046022 1.138432 -43.642090
v -28.046022 1.138432 -45.642090
v -25.046022 1.138432 -45.642090
v -27.676264 1.447234 -43.888596
v -25.415777 1.447234 -43.888596
v -27.676264 1.447234 -45.395584
v -25.415777 1.447234 -45.395584
v -27.676264 3.656020 -43.888596
v -25.415777 3.656020 -43.888596
v -27.676264 3.656020 -45.395584
v -25.415777 3.656020 -45.395584
v -28.229679 4.719582 -43.519650
v -24.862364 4.719582 -43.519650
v -28.229679 4.719582 -45.764530
v -24.862364 4.719582 -45.764530
v -32.310509 4.754553 -40.799099
v -20.781536 4.754553 -40.799099
v -32.310509 4.754553 -48.485081
v -20.781536 4.754553 -48.485081
v -32.310509 5.290773 -40.799099
v -20.781536 5.290773 -40.799099
v -32.310509 5.290773 -48.485081
v -20.781536 5.290773 -48.485081
vt 0.130107 0.630107
vt 0.130107 0.500000
vt 0.260214 0.500000
vt 0.260214 0.630107
vt 0.000000 0.630107
vt 0.000000 0.500000
vt 0.016036 0.516036
vt 0.016036 0.614071
vt 0.020766 0.630107
vt 0.020766 0.760214
vt 0.000000 0.760214
vt 0.041532 0.630107
vt 0.041532 0.760214
vt 0.020766 0.760214
vt 0.020766 0.630107
vt 0.062297 0.630107
vt 0.062297 0.760214
vt 0.041532 0.760214
vt 0.041532 0.630107
vt 0.083063 0.630107
vt 0.083063 0.760214
vt 0.062297 0.760214
vt 0.062297 0.630107
vt 0.473092 0.622036
vt 0.473092 0.524001
vt 0.544936 0.524001
vt 0.544936 0.622036
vt 0.130107 0.500000
vt 0.130107 0.630107
vt 0.114071 0.614071
vt 0.114071 0.516036
vt 0.579531 0.500000
vt 0.579531 0.646037
vt 0.579531 0.622036
vt 0.579531 0.524001
vt 0.651375 0.524001
vt 0.651375 0.622036
vt 0.366653 0.622036
vt 0.366653 0.524001
vt 0.438497 0.524001
vt 0.438497 0.622036
vt 0.260214 0.622036
vt 0.260214 0.524001
vt 0.332059 0.524001
vt 0.332059 0.622036
vt 0.676981 0.323019
vt 0.823019 0.323019
vt 1.000000 0.500000
vt 0.500000 0.500000
vt 0.685969 0.500000
vt 0.685969 0.646037
vt 0.473092 0.500000
vt 0.473092 0.646037
vt 0.366653 0.500000
vt 0.366653 0.646037
vt 0.720852 0.500000
vt 0.720852 1.000000
vt 0.703411 1.000000
vt 0.703411 0.500000
vt 0.823019 0.176981
vt 0.676981 0.176981
vt 0.500000 0.000000
vt 1.000000 0.000000
vt 0.000000 0.500000
vt 0.000000 0.000000
vt 0.500000 0.000000
vt 0.500000 0.500000
vt 0.703411 0.500000
vt 0.703411 1.000000
vt 0.685969 1.000000
vt 0.685969 0.500000
vt 0.738294 0.500000
vt 0.738294 1.000000
vt 0.720852 1.000000
vt 0.720852 0.500000
vt 0.755735 0.500000
vt 0.755735 1.000000
vt 0.738294 1.000000
vt 0.738294 0.500000
vn 0.0000 -1.0000 0.0000
vn 0.6410 0.7675 0.0000
vn 1.0000 0.0000 0.0000
vn -1.0000 0.0000 0.0000
vn 0.0000 0.0000 -1.0000
vn 0.0000 0.0000 1.0000
vn -0.6410 0.7675 0.0000
vn 0.0000 0.6239 -0.7815
vn 0.0000 0.6239 0.7815
vn 0.0000 -0.3277 -0.9448
vn 0.0086 -1.0000 0.0000
vn 0.0000 -0.3277 0.9448
vn 0.8871 -0.4616 0.0000
vn -0.8871 -0.4616 0.0000
vn -0.0086 -1.0000 0.0000
vn 0.0000 -0.9999 -0.0129
vn 0.0000 -0.9999 0.0129
vn 0.0000 1.0000 0.0000
g Mesa_Plane_Material
usemtl Material
s off
f 1/1/1 3/2/1 4/3/1 2/4/1
f 6/5/2 8/6/2 12/7/2 10/8/2
f 2/9/3 4/10/3 8/11/3 6/5/3
f 3/12/4 1/13/4 5/14/4 7/15/4
f 4/16/5 3/17/5 7/18/5 8/19/5
f 1/20/6 2/21/6 6/22/6 5/23/6
f 12/24/5 11/25/5 15/26/5 16/27/5
f 7/28/7 5/29/7 9/30/7 11/31/7
f 8/6/8 7/28/8 11/31/8 12/7/8
f 5/29/9 6/5/9 10/8/9 9/30/9
f 16/27/10 15/26/10 19/32/10 20/33/10
f 9/34/6 10/35/6 14/36/6 13/37/6
f 10/38/3 12/39/3 16/40/3 14/41/3
f 11/42/4 9/43/4 13/44/4 15/45/4
f 18/46/11 20/47/11 24/48/11 22/49/11
f 13/37/12 14/36/12 18/50/12 17/51/12
f 14/41/13 16/40/13 20/52/13 18/53/13
f 15/45/14 13/44/14 17/54/14 19/55/14
f 24/56/5 23/57/5 27/58/5 28/59/5
f 19/60/15 17/61/15 21/62/15 23/63/15
f 20/47/16 19/60/16 23/63/16 24/48/16
f 17/61/17 18/46/17 22/49/17 21/62/17
f 25/64/18 26/65/18 28/66/18 27/67/18
f 21/68/6 22/69/6 26/70/6 25/71/6
f 22/72/3 24/73/3 28/74/3 26/75/3
f 23/76/4 21/77/4 25/78/4 27/79/4
