# Blender v2.93.5 OBJ File: 'ProyectoEscenario.blend'
# www.blender.org
mtllib poke_centro.mtl
o centrocuerpo
v -49.182102 1.135524 -55.915726
v -49.179337 1.135524 -55.847977
v -49.179337 1.233997 -55.847977
v -49.182102 1.233997 -55.915726
v -49.169956 1.135524 -55.780819
v -49.169956 1.233997 -55.780819
v -49.169956 1.332470 -55.780819
v -49.179337 1.332470 -55.847977
v -49.182102 1.332470 -55.915726
v -49.154022 1.135524 -55.714909
v -49.154022 1.233997 -55.714909
v -49.131721 1.135524 -55.650875
v -49.131721 1.233997 -55.650875
v -49.131721 1.332470 -55.650875
v -49.154022 1.332470 -55.714909
v -49.103233 1.135524 -55.589340
v -49.103233 1.233997 -55.589340
v -49.068871 1.135524 -55.530884
v -49.068871 1.233997 -55.530884
v -49.068871 1.332470 -55.530884
v -49.103233 1.332470 -55.589340
v -49.028927 1.135524 -55.476089
v -49.028927 1.233997 -55.476089
v -48.983818 1.135524 -55.425465
v -48.983818 1.233997 -55.425465
v -48.983818 1.332470 -55.425465
v -49.028927 1.332470 -55.476089
v -48.933952 1.135524 -55.379513
v -48.933952 1.233997 -55.379513
v -48.879833 1.135524 -55.338661
v -48.879833 1.233997 -55.338661
v -48.879833 1.332470 -55.338661
v -48.933952 1.332470 -55.379513
v -48.821960 1.135524 -55.303322
v -48.821960 1.233997 -55.303322
v -48.760910 1.135524 -55.273811
v -48.760910 1.233997 -55.273811
v -48.760910 1.332470 -55.273811
v -48.821960 1.332470 -55.303322
v -48.697258 1.135524 -55.250443
v -48.697258 1.233997 -55.250443
v -48.631626 1.135524 -55.233410
v -48.631626 1.233997 -55.233410
v -48.631626 1.332470 -55.233410
v -48.697258 1.332470 -55.250443
v -48.564636 1.135524 -55.222908
v -48.564636 1.233997 -55.222908
v -48.496941 1.135524 -55.219006
v -48.496941 1.233997 -55.219006
v -48.496941 1.332470 -55.219006
v -48.564636 1.332470 -55.222908
v -48.429188 1.135524 -55.221775
v -48.429188 1.233997 -55.221775
v -48.362030 1.135524 -55.231155
v -48.362030 1.233997 -55.231155
v -48.362030 1.332470 -55.231155
v -48.429188 1.332470 -55.221775
v -48.296124 1.135524 -55.247086
v -48.296124 1.233997 -55.247086
v -48.232086 1.135524 -55.269390
v -48.232086 1.233997 -55.269390
v -48.232086 1.332470 -55.269390
v -48.296124 1.332470 -55.247086
v -48.170551 1.135524 -55.297874
v -48.170551 1.233997 -55.297874
v -48.114445 1.135524 -55.330345
v -48.114445 1.233997 -55.330345
v -48.114445 1.332470 -55.330345
v -48.170551 1.332470 -55.297874
v -48.031662 1.135524 -55.392868
v -48.013725 1.135524 -55.407341
v -48.013725 1.233996 -55.407341
v -48.031662 1.233997 -55.392868
v -47.995781 1.135524 -55.426083
v -47.995781 1.233996 -55.426083
v -47.995781 1.332470 -55.426083
v -48.013725 1.332470 -55.407341
v -48.031662 1.332470 -55.392868
v -47.960728 1.135524 -55.467155
v -47.960728 1.233996 -55.467155
v -47.919872 1.135524 -55.521278
v -47.919872 1.233996 -55.521278
v -47.919872 1.332470 -55.521278
v -47.960728 1.332470 -55.467155
v -47.884533 1.135524 -55.579147
v -47.884533 1.233996 -55.579147
v -47.855022 1.135524 -55.640198
v -47.855022 1.233996 -55.640198
v -47.855022 1.332470 -55.640198
v -47.884533 1.332470 -55.579147
v -47.831654 1.135524 -55.703850
v -47.831654 1.233996 -55.703850
v -47.814621 1.135548 -55.769485
v -47.814621 1.234021 -55.769485
v -47.814621 1.332494 -55.769485
v -47.831654 1.332470 -55.703850
v -47.804119 1.135623 -55.836475
v -47.804119 1.234095 -55.836475
v -47.800217 1.135696 -55.904171
v -47.800217 1.234169 -55.904171
v -47.800217 1.332642 -55.904171
v -47.804119 1.332568 -55.836475
v -47.802986 1.135721 -55.971920
v -47.802986 1.234194 -55.971920
v -47.812366 1.135696 -56.039078
v -47.812366 1.234169 -56.039078
v -47.812366 1.332642 -56.039078
v -47.802986 1.332667 -55.971920
v -47.828300 1.135623 -56.104988
v -47.828300 1.234095 -56.104988
v -47.850601 1.135548 -56.169022
v -47.850601 1.234021 -56.169022
v -47.850601 1.332494 -56.169022
v -47.828300 1.332568 -56.104988
v -47.879086 1.135524 -56.230556
v -47.879086 1.233996 -56.230556
v -47.913452 1.135524 -56.289013
v -47.913452 1.233996 -56.289013
v -47.913452 1.332470 -56.289013
v -47.879086 1.332470 -56.230556
v -47.953396 1.135524 -56.343807
v -47.953396 1.233996 -56.343807
v -47.998505 1.135524 -56.394432
v -47.998505 1.233996 -56.394432
v -47.998505 1.332470 -56.394432
v -47.953396 1.332470 -56.343807
v -48.048370 1.135524 -56.440384
v -48.048370 1.233997 -56.440384
v -48.102489 1.135524 -56.481236
v -48.102489 1.233997 -56.481236
v -48.102489 1.332470 -56.481236
v -48.048370 1.332470 -56.440384
v -48.160362 1.135524 -56.516575
v -48.160362 1.233997 -56.516575
v -48.221409 1.135524 -56.546085
v -48.221409 1.233997 -56.546085
v -48.221413 1.332470 -56.546085
v -48.160362 1.332470 -56.516575
v -48.285065 1.135524 -56.569454
v -48.285065 1.233997 -56.569454
v -48.350697 1.135524 -56.586487
v -48.350697 1.233997 -56.586487
v -48.350697 1.332470 -56.586487
v -48.285065 1.332470 -56.569454
v -48.417686 1.135524 -56.596989
v -48.417686 1.233997 -56.596989
v -48.485382 1.135524 -56.600891
v -48.485382 1.233997 -56.600891
v -48.485382 1.332470 -56.600891
v -48.417686 1.332470 -56.596989
v -48.553135 1.135524 -56.598122
v -48.553135 1.233997 -56.598122
v -48.620293 1.135524 -56.588741
v -48.620293 1.233997 -56.588741
v -48.620289 1.332470 -56.588741
v -48.553135 1.332470 -56.598122
v -48.686199 1.135524 -56.572807
v -48.686199 1.233997 -56.572807
v -48.750237 1.135524 -56.550507
v -48.750237 1.233997 -56.550507
v -48.750237 1.332470 -56.550507
v -48.686199 1.332470 -56.572807
v -48.811771 1.135524 -56.522022
v -48.811771 1.233997 -56.522022
v -48.870224 1.135524 -56.487656
v -48.870224 1.233997 -56.487656
v -48.870224 1.332470 -56.487656
v -48.811771 1.332470 -56.522022
v -48.925018 1.135524 -56.447712
v -48.925018 1.233997 -56.447712
v -48.975647 1.135524 -56.402603
v -48.975647 1.233997 -56.402603
v -48.975647 1.332470 -56.402603
v -48.925018 1.332470 -56.447712
v -49.021595 1.135524 -56.352737
v -49.021595 1.233997 -56.352737
v -49.062450 1.135524 -56.298618
v -49.062450 1.233997 -56.298618
v -49.062450 1.332470 -56.298618
v -49.021595 1.332470 -56.352737
v -49.097790 1.135524 -56.240749
v -49.097790 1.233997 -56.240749
v -49.127296 1.135524 -56.179699
v -49.127296 1.233997 -56.179699
v -49.127296 1.332470 -56.179699
v -49.097790 1.332470 -56.240749
v -49.150669 1.135524 -56.116043
v -49.150669 1.233997 -56.116043
v -49.167702 1.135524 -56.050411
v -49.167702 1.233997 -56.050411
v -49.167702 1.332470 -56.050411
v -49.150669 1.332470 -56.116043
v -49.178204 1.135524 -55.983421
v -49.178204 1.233997 -55.983421
v -49.178204 1.332470 -55.983421
v -48.066692 1.135524 -55.364609
v -48.066692 1.233997 -55.364609
v -48.066692 1.332470 -55.364609
vt 0.000000 0.469158
vt 0.015625 0.469158
vt 0.015625 0.469158
vt 0.000000 0.469158
vt 0.031250 0.469158
vt 0.031250 0.469158
vt 0.031250 0.469158
vt 0.015625 0.469158
vt 0.000000 0.469158
vt 0.046875 0.469158
vt 0.046875 0.469158
vt 0.062500 0.469158
vt 0.062500 0.469158
vt 0.062500 0.469158
vt 0.046875 0.469158
vt 0.078125 0.469158
vt 0.078125 0.469158
vt 0.093750 0.469158
vt 0.093750 0.469158
vt 0.093750 0.469158
vt 0.078125 0.469158
vt 0.109375 0.469158
vt 0.109375 0.469158
vt 0.125000 0.469158
vt 0.125000 0.469158
vt 0.125000 0.469158
vt 0.109375 0.469158
vt 0.140625 0.469158
vt 0.140625 0.469158
vt 0.156250 0.469158
vt 0.156250 0.469158
vt 0.156250 0.469158
vt 0.140625 0.469158
vt 0.171875 0.469158
vt 0.171875 0.469158
vt 0.187500 0.469158
vt 0.187500 0.469158
vt 0.187500 0.469158
vt 0.171875 0.469158
vt 0.203125 0.469158
vt 0.203125 0.469158
vt 0.218750 0.469158
vt 0.218750 0.469158
vt 0.218750 0.469158
vt 0.203125 0.469158
vt 0.234375 0.469158
vt 0.234375 0.469158
vt 0.250000 0.469158
vt 0.250000 0.469158
vt 0.250000 0.469158
vt 0.234375 0.469158
vt 0.265625 0.469158
vt 0.265625 0.469158
vt 0.281250 0.469158
vt 0.281250 0.469158
vt 0.281250 0.469158
vt 0.265625 0.469158
vt 0.296875 0.469158
vt 0.296875 0.469158
vt 0.312500 0.469158
vt 0.312500 0.469158
vt 0.312500 0.469158
vt 0.296875 0.469158
vt 0.328125 0.469158
vt 0.328125 0.469158
vt 0.343058 0.469158
vt 0.343058 0.469158
vt 0.343058 0.469158
vt 0.328125 0.469158
vt 0.366939 0.469158
vt 0.372230 0.469158
vt 0.372230 0.469158
vt 0.366939 0.469158
vt 0.378214 0.469158
vt 0.378214 0.469158
vt 0.378214 0.469158
vt 0.372230 0.469158
vt 0.366939 0.469158
vt 0.390625 0.469158
vt 0.390625 0.469158
vt 0.406250 0.469158
vt 0.406250 0.469158
vt 0.406250 0.469158
vt 0.390625 0.469158
vt 0.421875 0.469158
vt 0.421875 0.469158
vt 0.437500 0.469158
vt 0.437500 0.469158
vt 0.437500 0.469158
vt 0.421875 0.469158
vt 0.453125 0.469158
vt 0.453125 0.469158
vt 0.468750 0.469158
vt 0.468750 0.469158
vt 0.468750 0.469158
vt 0.453125 0.469158
vt 0.484375 0.469158
vt 0.484375 0.469158
vt 0.500000 0.469158
vt 0.500000 0.469158
vt 0.500000 0.469158
vt 0.484375 0.469158
vt 0.515625 0.469158
vt 0.515625 0.469158
vt 0.531250 0.469158
vt 0.531250 0.469158
vt 0.531250 0.469158
vt 0.515625 0.469158
vt 0.546875 0.469158
vt 0.546875 0.469158
vt 0.562500 0.469158
vt 0.562500 0.469158
vt 0.562500 0.469158
vt 0.546875 0.469158
vt 0.578125 0.469158
vt 0.578125 0.469158
vt 0.593750 0.469158
vt 0.593750 0.469158
vt 0.593750 0.469158
vt 0.578125 0.469158
vt 0.609375 0.469158
vt 0.609375 0.469158
vt 0.625000 0.469158
vt 0.625000 0.469158
vt 0.625000 0.469158
vt 0.609375 0.469158
vt 0.640625 0.469158
vt 0.640625 0.469158
vt 0.656250 0.469158
vt 0.656250 0.469158
vt 0.656250 0.469158
vt 0.640625 0.469158
vt 0.671875 0.469158
vt 0.671875 0.469158
vt 0.687500 0.469158
vt 0.687500 0.469158
vt 0.687500 0.469158
vt 0.671875 0.469158
vt 0.703125 0.469158
vt 0.703125 0.469158
vt 0.718750 0.469158
vt 0.718750 0.469158
vt 0.718750 0.469158
vt 0.703125 0.469158
vt 0.734375 0.469158
vt 0.734375 0.469158
vt 0.750000 0.469158
vt 0.750000 0.469158
vt 0.750000 0.469158
vt 0.734375 0.469158
vt 0.765625 0.469158
vt 0.765625 0.469158
vt 0.781250 0.469158
vt 0.781250 0.469158
vt 0.781250 0.469158
vt 0.765625 0.469158
vt 0.796875 0.469158
vt 0.796875 0.469158
vt 0.812500 0.469158
vt 0.812500 0.469158
vt 0.812500 0.469158
vt 0.796875 0.469158
vt 0.828125 0.469158
vt 0.828125 0.469158
vt 0.843750 0.469158
vt 0.843750 0.469158
vt 0.843750 0.469158
vt 0.828125 0.469158
vt 0.859375 0.469158
vt 0.859375 0.469158
vt 0.875000 0.469158
vt 0.875000 0.469158
vt 0.875000 0.469158
vt 0.859375 0.469158
vt 0.890625 0.469158
vt 0.890625 0.469158
vt 0.906250 0.469158
vt 0.906250 0.469158
vt 0.906250 0.469158
vt 0.890625 0.469158
vt 0.921875 0.469158
vt 0.921875 0.469158
vt 0.937500 0.469158
vt 0.937500 0.469158
vt 0.937500 0.469158
vt 0.921875 0.469158
vt 0.953125 0.469158
vt 0.953125 0.469158
vt 0.968750 0.469158
vt 0.968750 0.469158
vt 0.968750 0.469158
vt 0.953125 0.469158
vt 0.984375 0.469158
vt 0.984375 0.469158
vt 1.000000 0.469158
vt 1.000000 0.469158
vt 1.000000 0.469158
vt 0.984375 0.469158
vt 0.356605 0.469158
vt 0.356605 0.469158
vt 0.356605 0.469158
vn -1.0000 0.0000 -0.0084
vn -0.9960 0.0000 0.0897
vn -0.9824 0.0000 0.1869
vn -0.9593 0.0000 0.2823
vn -0.9270 0.0000 0.3750
vn -0.8858 0.0000 0.4640
vn -0.8361 0.0000 0.5486
vn -0.7783 0.0000 0.6279
vn -0.7130 0.0000 0.7012
vn -0.6408 0.0000 0.7677
vn -0.5625 0.0000 0.8268
vn -0.4787 0.0000 0.8780
vn -0.3904 0.0000 0.9207
vn -0.2983 0.0000 0.9545
vn -0.2033 0.0000 0.9791
vn -0.1064 0.0000 0.9943
vn -0.1063 0.0000 0.9943
vn -0.0084 0.0000 1.0000
vn 0.0897 0.0000 0.9960
vn 0.1869 0.0000 0.9824
vn 0.2823 0.0000 0.9593
vn 0.3749 0.0000 0.9271
vn 0.3750 0.0000 0.9270
vn 0.4610 0.0000 0.8874
vn 0.5426 0.0000 0.8400
vn 0.6279 0.0000 0.7783
vn 0.6765 0.0000 0.7364
vn 0.7418 0.0000 0.6707
vn 0.7797 0.0000 0.6261
vn 0.8268 0.0000 0.5625
vn 0.8779 0.0000 0.4788
vn 0.9206 0.0000 0.3904
vn 0.9545 0.0000 0.2983
vn 0.9791 0.0000 0.2033
vn 0.9943 0.0000 0.1064
vn 0.9943 0.0000 0.1063
vn 1.0000 0.0000 0.0084
vn 1.0000 0.0000 0.0083
vn 0.9960 0.0000 -0.0897
vn 0.9824 0.0000 -0.1869
vn 0.9593 0.0000 -0.2823
vn 0.9270 0.0000 -0.3749
vn 0.9271 0.0000 -0.3749
vn 0.9593 0.0000 -0.2822
vn 0.8858 0.0000 -0.4640
vn 0.8361 0.0000 -0.5486
vn 0.7783 0.0000 -0.6279
vn 0.7130 0.0000 -0.7012
vn 0.6408 0.0000 -0.7677
vn 0.5625 0.0000 -0.8268
vn 0.4788 0.0000 -0.8779
vn 0.4788 0.0000 -0.8780
vn 0.3904 0.0000 -0.9206
vn 0.3904 0.0000 -0.9207
vn 0.4787 0.0000 -0.8780
vn 0.2983 0.0000 -0.9545
vn 0.2033 0.0000 -0.9791
vn 0.1063 0.0000 -0.9943
vn 0.1064 0.0000 -0.9943
vn 0.0084 0.0000 -1.0000
vn -0.0897 0.0000 -0.9960
vn -0.1869 0.0000 -0.9824
vn -0.2823 0.0000 -0.9593
vn -0.3749 0.0000 -0.9271
vn -0.4640 0.0000 -0.8858
vn -0.5486 0.0000 -0.8361
vn -0.6279 0.0000 -0.7783
vn -0.7012 0.0000 -0.7130
vn -0.7677 0.0000 -0.6408
vn -0.8268 0.0000 -0.5625
vn -0.8780 0.0000 -0.4787
vn -0.9207 0.0000 -0.3904
vn -0.9545 0.0000 -0.2983
vn -0.9791 0.0000 -0.2033
vn -0.9943 0.0000 -0.1063
vn 0.6057 0.0000 0.7957
g centrocuerpo_centrocuerpo_lambert5SG.005
usemtl lambert5SG.005
s 1
f 1/1/1 2/2/2 3/3/2 4/4/1
f 5/5/3 6/6/3 3/3/2 2/2/2
f 7/7/3 8/8/2 3/3/2 6/6/3
f 9/9/1 4/4/1 3/3/2 8/8/2
f 5/5/3 10/10/4 11/11/4 6/6/3
f 12/12/5 13/13/5 11/11/4 10/10/4
f 14/14/5 15/15/4 11/11/4 13/13/5
f 7/7/3 6/6/3 11/11/4 15/15/4
f 12/12/5 16/16/6 17/17/6 13/13/5
f 18/18/7 19/19/7 17/17/6 16/16/6
f 20/20/7 21/21/6 17/17/6 19/19/7
f 14/14/5 13/13/5 17/17/6 21/21/6
f 18/18/7 22/22/8 23/23/8 19/19/7
f 24/24/9 25/25/9 23/23/8 22/22/8
f 26/26/9 27/27/8 23/23/8 25/25/9
f 20/20/7 19/19/7 23/23/8 27/27/8
f 24/24/9 28/28/10 29/29/10 25/25/9
f 30/30/11 31/31/11 29/29/10 28/28/10
f 32/32/11 33/33/10 29/29/10 31/31/11
f 26/26/9 25/25/9 29/29/10 33/33/10
f 30/30/11 34/34/12 35/35/12 31/31/11
f 36/36/13 37/37/13 35/35/12 34/34/12
f 38/38/13 39/39/12 35/35/12 37/37/13
f 32/32/11 31/31/11 35/35/12 39/39/12
f 36/36/13 40/40/14 41/41/14 37/37/13
f 42/42/15 43/43/15 41/41/14 40/40/14
f 44/44/15 45/45/14 41/41/14 43/43/15
f 38/38/13 37/37/13 41/41/14 45/45/14
f 42/42/15 46/46/16 47/47/17 43/43/15
f 48/48/18 49/49/18 47/47/17 46/46/16
f 50/50/18 51/51/17 47/47/17 49/49/18
f 44/44/15 43/43/15 47/47/17 51/51/17
f 48/48/18 52/52/19 53/53/19 49/49/18
f 54/54/20 55/55/20 53/53/19 52/52/19
f 56/56/20 57/57/19 53/53/19 55/55/20
f 50/50/18 49/49/18 53/53/19 57/57/19
f 54/54/20 58/58/21 59/59/21 55/55/20
f 60/60/22 61/61/23 59/59/21 58/58/21
f 62/62/23 63/63/21 59/59/21 61/61/23
f 56/56/20 55/55/20 59/59/21 63/63/21
f 60/60/22 64/64/24 65/65/24 61/61/23
f 66/66/25 67/67/25 65/65/24 64/64/24
f 68/68/25 69/69/24 65/65/24 67/67/25
f 62/62/23 61/61/23 65/65/24 69/69/24
f 70/70/26 71/71/27 72/72/27 73/73/26
f 74/74/28 75/75/28 72/72/27 71/71/27
f 76/76/28 77/77/27 72/72/27 75/75/28
f 78/78/26 73/73/26 72/72/27 77/77/27
f 74/74/28 79/79/29 80/80/29 75/75/28
f 81/81/30 82/82/30 80/80/29 79/79/29
f 83/83/30 84/84/29 80/80/29 82/82/30
f 76/76/28 75/75/28 80/80/29 84/84/29
f 81/81/30 85/85/31 86/86/31 82/82/30
f 87/87/32 88/88/32 86/86/31 85/85/31
f 89/89/32 90/90/31 86/86/31 88/88/32
f 83/83/30 82/82/30 86/86/31 90/90/31
f 87/87/32 91/91/33 92/92/33 88/88/32
f 93/93/34 94/94/34 92/92/33 91/91/33
f 95/95/34 96/96/33 92/92/33 94/94/34
f 89/89/32 88/88/32 92/92/33 96/96/33
f 93/93/34 97/97/35 98/98/36 94/94/34
f 99/99/37 100/100/37 98/98/36 97/97/35
f 101/101/38 102/102/36 98/98/36 100/100/37
f 95/95/34 94/94/34 98/98/36 102/102/36
f 99/99/37 103/103/39 104/104/39 100/100/37
f 105/105/40 106/106/40 104/104/39 103/103/39
f 107/107/40 108/108/39 104/104/39 106/106/40
f 101/101/38 100/100/37 104/104/39 108/108/39
f 105/105/40 109/109/41 110/110/41 106/106/40
f 111/111/42 112/112/43 110/110/41 109/109/41
f 113/113/43 114/114/44 110/110/41 112/112/43
f 107/107/40 106/106/40 110/110/41 114/114/44
f 111/111/42 115/115/45 116/116/45 112/112/43
f 117/117/46 118/118/46 116/116/45 115/115/45
f 119/119/46 120/120/45 116/116/45 118/118/46
f 113/113/43 112/112/43 116/116/45 120/120/45
f 117/117/46 121/121/47 122/122/47 118/118/46
f 123/123/48 124/124/48 122/122/47 121/121/47
f 125/125/48 126/126/47 122/122/47 124/124/48
f 119/119/46 118/118/46 122/122/47 126/126/47
f 123/123/48 127/127/49 128/128/49 124/124/48
f 129/129/50 130/130/50 128/128/49 127/127/49
f 131/131/50 132/132/49 128/128/49 130/130/50
f 125/125/48 124/124/48 128/128/49 132/132/49
f 129/129/50 133/133/51 134/134/52 130/130/50
f 135/135/53 136/136/54 134/134/52 133/133/51
f 137/137/54 138/138/55 134/134/52 136/136/54
f 131/131/50 130/130/50 134/134/52 138/138/55
f 135/135/53 139/139/56 140/140/56 136/136/54
f 141/141/57 142/142/57 140/140/56 139/139/56
f 143/143/57 144/144/56 140/140/56 142/142/57
f 137/137/54 136/136/54 140/140/56 144/144/56
f 141/141/57 145/145/58 146/146/59 142/142/57
f 147/147/60 148/148/60 146/146/59 145/145/58
f 149/149/60 150/150/59 146/146/59 148/148/60
f 143/143/57 142/142/57 146/146/59 150/150/59
f 147/147/60 151/151/61 152/152/61 148/148/60
f 153/153/62 154/154/62 152/152/61 151/151/61
f 155/155/62 156/156/61 152/152/61 154/154/62
f 149/149/60 148/148/60 152/152/61 156/156/61
f 153/153/62 157/157/63 158/158/63 154/154/62
f 159/159/64 160/160/64 158/158/63 157/157/63
f 161/161/64 162/162/63 158/158/63 160/160/64
f 155/155/62 154/154/62 158/158/63 162/162/63
f 159/159/64 163/163/65 164/164/65 160/160/64
f 165/165/66 166/166/66 164/164/65 163/163/65
f 167/167/66 168/168/65 164/164/65 166/166/66
f 161/161/64 160/160/64 164/164/65 168/168/65
f 165/165/66 169/169/67 170/170/67 166/166/66
f 171/171/68 172/172/68 170/170/67 169/169/67
f 173/173/68 174/174/67 170/170/67 172/172/68
f 167/167/66 166/166/66 170/170/67 174/174/67
f 171/171/68 175/175/69 176/176/69 172/172/68
f 177/177/70 178/178/70 176/176/69 175/175/69
f 179/179/70 180/180/69 176/176/69 178/178/70
f 173/173/68 172/172/68 176/176/69 180/180/69
f 177/177/70 181/181/71 182/182/71 178/178/70
f 183/183/72 184/184/72 182/182/71 181/181/71
f 185/185/72 186/186/71 182/182/71 184/184/72
f 179/179/70 178/178/70 182/182/71 186/186/71
f 183/183/72 187/187/73 188/188/73 184/184/72
f 189/189/74 190/190/74 188/188/73 187/187/73
f 191/191/74 192/192/73 188/188/73 190/190/74
f 185/185/72 184/184/72 188/188/73 192/192/73
f 189/189/74 193/193/75 194/194/75 190/190/74
f 1/195/1 4/196/1 194/194/75 193/193/75
f 9/197/1 195/198/75 194/194/75 4/196/1
f 191/191/74 190/190/74 194/194/75 195/198/75
f 66/66/25 196/199/76 197/200/76 67/67/25
f 70/70/26 73/73/26 197/200/76 196/199/76
f 78/78/26 198/201/76 197/200/76 73/73/26
f 68/68/25 67/67/25 197/200/76 198/201/76
