# Blender v2.93.5 OBJ File: 'ProyectoEscenario.blend'
# www.blender.org
mtllib calcetin2.mtl
o Calcetin1.001_norvedem-sock.002
v -55.221478 4.761352 -42.803623
v -55.358799 4.776118 -42.492867
v -55.358799 4.627085 -42.481148
v -55.358799 4.460393 -43.718693
v -55.186657 4.328914 -43.675850
v -55.358799 4.330594 -43.822887
v -55.358799 4.725472 -43.586334
v -55.219509 4.573144 -43.494488
v -55.358799 4.595078 -43.620331
v -55.358799 4.341644 -42.849831
v -55.192669 4.498996 -42.871780
v -55.358799 4.440576 -42.589993
v -55.358799 4.213194 -43.047512
v -55.165676 4.271008 -43.161861
v -55.210052 4.615870 -42.796577
v -55.358799 4.523102 -42.517693
v -55.335022 5.329565 -43.795582
v -55.335506 5.327565 -43.809544
v -55.248356 5.386100 -43.653324
v -55.251102 5.386111 -43.645325
v -55.358799 4.886364 -43.592220
v -55.358799 5.038672 -43.653889
v -55.221478 5.095897 -43.518410
v -55.221478 4.916471 -43.453644
v -55.335289 5.592292 -43.097450
v -55.235096 5.543409 -43.227345
v -55.232018 5.549003 -43.220886
v -55.335819 5.599249 -43.086998
v -55.358799 5.306419 -42.960983
v -55.221478 5.206430 -43.049927
v -55.226898 5.385823 -43.161251
v -55.358799 5.503955 -43.058121
v -55.196056 3.952989 -43.396847
v -55.163509 4.015834 -43.615585
v -55.146275 4.127357 -43.534290
v -55.181465 4.079675 -43.318443
v -55.358799 4.889391 -42.561798
v -55.221478 5.027037 -42.925728
v -55.358799 5.147505 -42.829517
v -55.358799 3.690219 -43.901741
v -55.223877 3.934024 -43.884197
v -55.198631 3.904311 -43.696880
v -55.358799 3.622907 -43.758987
v -55.358799 3.624252 -43.594776
v -55.235867 3.826303 -43.475250
v -55.190968 4.062785 -43.853329
v -55.358799 3.927978 -44.016087
v -55.358799 4.072432 -44.003407
v -55.131245 4.302581 -43.395630
v -55.177933 4.179626 -43.783722
v -55.204609 5.468410 -43.426632
v -55.200844 5.471725 -43.427471
v -55.155544 4.576863 -43.160294
v -55.173401 4.686649 -43.131561
v -55.173401 4.873767 -43.155262
v -55.171612 5.050322 -43.238308
v -55.221478 4.707721 -43.447525
v -55.337791 5.484636 -43.911484
v -55.341625 5.656161 -43.983944
v -55.314281 5.680402 -43.844925
v -55.268780 5.540388 -43.765785
v -55.408760 5.543872 -43.226269
v -55.411629 5.549437 -43.220104
v -55.435162 5.471856 -43.427368
v -55.430367 5.468453 -43.426899
v -55.454609 4.466517 -43.256184
v -55.444817 4.275955 -43.378201
v -55.410545 3.904489 -43.696697
v -55.451416 5.215570 -43.326180
v -55.458843 5.024934 -43.244999
v -55.358799 3.675844 -43.451015
v -55.458878 4.806046 -43.172691
v -55.358799 3.795689 -43.979774
v -55.379749 5.332633 -43.825783
v -55.361118 5.325893 -43.843143
v -55.359856 5.320492 -43.828419
v -55.378155 5.326887 -43.811478
v -55.358799 4.201510 -43.934944
v -55.436188 4.118136 -43.505398
v -55.458878 4.621079 -43.194057
v -55.198288 5.480877 -43.430595
v -55.246479 5.394506 -43.663300
v -55.228462 5.643914 -43.488693
v -55.293224 5.795560 -43.540325
v -55.322670 5.881388 -43.340004
v -55.251495 5.722329 -43.271442
v -55.230217 5.557605 -43.218670
v -55.375107 5.614449 -43.078423
v -55.361118 5.618354 -43.067715
v -55.360058 5.781994 -43.110413
v -55.374199 5.778126 -43.121597
v -55.405113 5.370680 -43.686451
v -55.358799 5.322732 -43.813740
v -55.376747 5.328888 -43.797398
v -55.408760 5.543871 -43.226269
v -55.430367 5.468453 -43.426899
v -55.251102 5.386111 -43.645325
v -55.204609 5.468410 -43.426632
v -55.176975 5.214002 -43.329933
v -55.235096 5.543409 -43.227345
v -55.373600 5.600110 -43.084728
v -55.359856 5.603992 -43.074356
v -55.336674 5.613113 -43.080738
v -55.336292 5.333290 -43.823753
v -55.375053 5.685613 -43.993107
v -55.358799 5.663844 -44.005692
v -55.359993 5.477900 -43.929089
v -55.379101 5.485185 -43.910580
v -55.342583 5.966175 -43.206436
v -55.337643 5.776847 -43.124306
v -55.358799 5.985730 -43.198395
v -55.370415 5.989623 -43.212666
v -55.435570 5.650346 -43.491020
v -55.413826 5.534642 -43.784946
v -55.410461 5.378396 -43.707916
v -55.440186 5.485457 -43.432175
v -55.398872 5.917611 -43.586845
v -55.393051 5.770133 -43.879269
v -55.407700 5.370297 -43.696457
v -55.405113 5.370680 -43.686451
v -55.416927 5.727640 -43.267555
v -55.391079 5.973557 -43.372448
v -55.414677 5.563485 -43.218189
v -55.372288 5.593133 -43.095226
v -55.358799 5.596907 -43.085186
v -55.358799 5.985730 -43.198395
v -55.362175 5.976480 -43.210175
v -55.370415 5.989623 -43.212666
v -55.366737 5.920001 -43.356228
v -55.366852 5.838498 -43.563587
v -55.398872 5.917611 -43.586845
v -55.391079 5.973557 -43.372448
v -55.364426 5.714209 -43.862099
v -55.393051 5.770133 -43.879269
v -55.361328 5.668496 -43.988525
v -55.375053 5.685613 -43.993107
v -55.358799 5.663844 -44.005692
v -55.341625 5.656161 -43.983944
v -55.314281 5.680402 -43.844925
v -55.293224 5.795560 -43.540325
v -55.322670 5.881388 -43.340004
v -55.342583 5.966175 -43.206436
v -55.202621 4.442142 -43.595093
v -55.137688 4.463501 -43.239090
v -55.358799 4.038257 -43.184402
v -55.358799 3.888806 -43.248810
v -55.358799 3.760215 -43.337059
v -55.358799 5.596907 -43.085186
v -55.335289 5.592292 -43.097450
v -55.358799 5.322732 -43.813740
v -55.335022 5.329566 -43.795582
v -55.424721 4.006068 -43.607700
v -55.376747 5.328888 -43.797398
v -55.372288 5.593133 -43.095226
vt 0.603321 0.828090
vt 0.603321 0.915437
vt 0.529031 0.915437
vt 0.529031 0.828090
vt 0.414819 0.755778
vt 0.529031 0.755778
vt 0.414819 0.828090
vt 0.414819 0.915437
vt 0.324196 0.915437
vt 0.324196 0.828090
vt 0.324196 0.755778
vt 0.258875 0.755778
vt 0.249863 0.755778
vt 0.249863 0.828090
vt 0.258875 0.828090
vt 0.601762 0.915437
vt 0.615603 0.915437
vt 0.615603 0.828090
vt 0.601762 0.828090
vt 0.258221 0.915437
vt 0.258221 0.828090
vt 0.603321 0.755778
vt 0.258221 0.755778
vt 0.249863 0.915437
vt 0.258875 0.915437
vt 0.615603 0.755778
vt 0.601762 0.755778
vt 0.414819 0.828090
vt 0.541432 0.828090
vt 0.541432 0.755778
vt 0.414819 0.755778
vt 0.414819 0.915437
vt 0.541432 0.915437
vt 0.332341 0.828090
vt 0.332341 0.915437
vt 0.332341 0.755778
vt 0.349779 0.967953
vt 0.258000 0.991813
vt 0.254589 0.982200
vt 0.469767 0.960138
vt 0.469767 0.991813
vt 0.350155 0.991814
vt 0.650277 0.961473
vt 0.646841 0.991813
vt 0.731494 0.979082
vt 0.725984 0.991813
vt 0.733708 0.966388
vt 0.652753 0.929608
vt 0.469767 0.922922
vt 0.349138 0.941298
vt 0.289204 0.385044
vt 0.153801 0.345099
vt 0.169211 0.284860
vt 0.707328 0.440773
vt 0.703427 0.341750
vt 0.772939 0.408990
vt 0.617094 0.519027
vt 0.595829 0.419606
vt 0.652227 0.475855
vt 0.359181 0.195535
vt 0.354215 0.292011
vt 0.234254 0.221061
vt 0.459573 0.161397
vt 0.502815 0.240851
vt 0.307981 0.327504
vt 0.196265 0.247348
vt 0.599249 0.746617
vt 0.601828 0.749330
vt 0.529031 0.749330
vt 0.529031 0.746617
vt 0.593457 0.566910
vt 0.586008 0.627050
vt 0.509960 0.622184
vt 0.518502 0.546639
vt 0.262619 0.746617
vt 0.324196 0.746617
vt 0.324196 0.749330
vt 0.259998 0.749330
vt 0.246925 0.619924
vt 0.317907 0.590429
vt 0.332288 0.673894
vt 0.258032 0.706421
vt 0.648041 0.146678
vt 0.724266 0.207725
vt 0.673749 0.240937
vt 0.595200 0.185174
vt 0.163399 0.399266
vt 0.298578 0.504596
vt 0.222612 0.540015
vt 0.912155 0.110031
vt 0.854166 0.213629
vt 0.776360 0.173922
vt 0.862318 0.054725
vt 0.791248 0.023519
vt 0.700849 0.104882
vt 0.813317 0.257214
vt 0.925798 0.236228
vt 0.899865 0.300617
vt 0.592976 0.289134
vt 0.764352 0.296365
vt 0.414819 0.746617
vt 0.414819 0.749330
vt 0.458978 0.364764
vt 0.430689 0.404351
vt 0.410824 0.480601
vt 0.414058 0.560334
vt 0.553690 0.465799
vt 0.336739 0.746617
vt 0.334118 0.749330
vt 0.414819 0.749330
vt 0.414819 0.746617
vt 0.508939 0.326274
vt 0.590712 0.267818
vt 0.787205 0.159641
vt 0.420245 0.635686
vt 0.417620 0.552477
vt 0.718466 0.017738
vt 0.422968 0.455092
vt 0.929159 0.170481
vt 0.612617 0.749330
vt 0.600269 0.749330
vt 0.846520 0.361700
vt 0.670907 0.224408
vt 0.460498 0.381686
vt 0.535109 0.743709
vt 0.607459 0.746617
vt 0.597690 0.746617
vt 0.325728 0.743709
vt 0.418898 0.743709
vt 0.512782 0.743709
vt 0.418898 0.743709
vt 0.421894 0.634955
vt 0.334211 0.743709
vt 0.261541 0.749330
vt 0.253417 0.749330
vt 0.541432 0.749330
vt 0.541432 0.746617
vt 0.265472 0.746617
vt 0.258658 0.746617
vt 0.247341 0.991813
vt 0.741968 0.991813
vt 0.250092 0.969242
vt 0.655594 0.378284
vt 0.507041 0.330870
vt 0.540367 0.116875
vt 0.594061 0.067858
vt 0.652137 0.030521
vt 0.258658 0.743709
vt 0.268054 0.743709
vt 0.591772 0.743709
vt 0.580785 0.743709
vt 0.732299 0.192425
vt 0.583035 0.743709
vt 0.263895 0.743709
vn 0.8137 -0.2213 -0.5375
vn 0.8072 -0.1804 -0.5620
vn 0.9560 0.1100 -0.2721
vn 0.9570 0.0345 -0.2880
vn 0.9974 -0.0716 0.0029
vn 0.9383 -0.2418 -0.2471
vn 0.9699 0.2251 -0.0931
vn 0.9362 0.3318 -0.1159
vn 0.9355 0.3404 0.0948
vn 0.9433 0.2706 0.1924
vn 0.9122 -0.0328 0.4084
vn -0.7824 -0.1048 0.6139
vn -0.0745 -0.0441 0.9963
vn -0.0519 0.3290 0.9429
vn -0.8475 0.1881 0.4963
vn -0.9242 -0.1095 -0.3659
vn -0.3821 -0.3435 -0.8579
vn -0.0480 -0.4318 -0.9007
vn -0.8800 -0.1931 -0.4340
vn 0.7745 0.3231 0.5439
vn 0.7577 0.2701 0.5941
vn 0.7299 -0.5150 -0.4495
vn 0.6350 -0.0538 0.7706
vn -0.3210 0.3831 0.8661
vn -0.9047 0.2058 0.3731
vn -0.0506 -0.7199 -0.6922
vn -0.8099 -0.4830 -0.3326
vn -0.9984 0.0552 -0.0135
vn -0.9890 -0.0244 -0.1462
vn -0.9680 -0.2328 -0.0937
vn -0.9880 -0.1423 0.0594
vn -0.9939 0.1059 -0.0308
vn -0.9901 0.0341 -0.1363
vn -0.9862 0.0930 0.1367
vn -0.9874 0.1328 0.0859
vn -0.9670 -0.0992 0.2346
vn 0.8063 0.5513 -0.2141
vn 0.8401 0.4408 -0.3161
vn 0.6742 0.5911 -0.4428
vn 0.7853 0.5763 -0.2261
vn 0.9221 0.3595 -0.1435
vn 0.9216 0.3609 -0.1431
vn 0.7595 0.6077 -0.2323
vn 0.9007 0.4032 -0.1617
vn 0.7148 0.6815 -0.1571
vn 0.8557 0.4978 -0.1415
vn 0.5778 0.7843 -0.2259
vn 0.5790 0.7614 -0.2918
vn 0.5907 0.7528 -0.2903
vn 0.6369 0.7192 -0.2778
vn 0.9408 0.1494 0.3043
vn -0.1200 0.2734 0.9544
vn -0.1299 -0.0896 0.9875
vn -0.3671 0.5443 -0.7543
vn 0.8313 0.3526 -0.4297
vn -0.3756 0.5680 -0.7323
vn -0.2956 0.0955 -0.9505
vn 0.8592 0.2993 -0.4150
vn -0.3483 0.4177 -0.8392
vn -0.3384 -0.7932 0.5062
vn 0.9066 -0.2832 0.3128
vn -0.1986 -0.7418 0.6405
vn -0.3624 -0.6798 0.6376
vn 0.8582 -0.3567 0.3691
vn 0.9497 0.0074 0.3132
vn -0.1563 -0.4356 0.8864
vn 0.3406 -0.9316 0.1272
vn 0.5375 -0.8365 -0.1062
vn 0.7418 -0.6704 -0.0184
vn 0.5590 -0.8148 0.1535
vn -0.2817 -0.2025 -0.9379
vn -0.2570 -0.4289 -0.8660
vn 0.9005 -0.1479 -0.4089
vn 0.9021 -0.0948 -0.4210
vn 0.2586 -0.7991 0.5427
vn 0.5376 -0.7347 0.4139
vn 0.7081 -0.5226 0.4749
vn 0.4343 -0.5740 0.6942
vn -0.2784 0.5242 0.8048
vn 0.8872 0.2572 0.3830
vn 0.9009 0.2185 0.3751
vn -0.2691 0.2705 0.9243
vn 0.8726 -0.3475 0.3432
vn 0.9810 -0.1904 -0.0365
vn 0.9971 -0.0734 -0.0186
vn 0.8575 -0.3317 0.3932
vn -0.1559 0.5471 0.8224
vn 0.9104 0.2330 0.3420
vn -0.2419 0.5836 0.7752
vn -0.1707 -0.7958 -0.5810
vn 0.8576 -0.2206 -0.4646
vn 0.9282 -0.3600 -0.0936
vn -0.1460 -0.9662 -0.2124
vn -0.1769 -0.9767 0.1219
vn 0.8548 -0.4705 0.2189
vn 0.8739 0.0630 -0.4820
vn -0.2901 -0.0983 -0.9519
vn -0.3022 0.2267 -0.9259
vn 0.9993 0.0263 -0.0260
vn 0.8644 0.2509 -0.4358
vn 0.6189 -0.7428 0.2555
vn 0.8399 -0.5152 0.1705
vn 0.9925 0.1222 -0.0003
vn 0.9975 0.0703 0.0076
vn 0.9997 0.0216 0.0140
vn 0.9996 0.0265 -0.0035
vn 0.9037 0.0818 -0.4202
vn -0.5837 -0.7292 0.3572
vn -0.7832 -0.5148 0.3488
vn -0.8230 -0.5296 0.2055
vn -0.6121 -0.7410 0.2761
vn -0.9982 -0.0578 -0.0138
vn -0.9986 -0.0511 0.0127
vn -0.9949 -0.0858 -0.0538
vn -0.9999 0.0161 -0.0010
vn -0.9992 0.0333 -0.0208
vn -0.2484 -0.8597 0.4463
vn -0.9995 0.0274 -0.0163
vn -0.2536 -0.4498 -0.8564
vn -0.0072 -0.9803 -0.1975
vn -0.6066 -0.7950 -0.0063
vn -0.3384 0.4955 -0.8000
vn -0.9993 -0.0361 0.0099
vn -0.9991 -0.0285 -0.0322
vn -0.9792 -0.1076 -0.1718
vn -0.0035 -0.9888 0.1493
vn -0.4597 -0.8715 0.1706
vn -0.9731 0.0450 0.2257
vn -0.9970 0.0735 -0.0237
vn 0.9363 -0.0521 -0.3474
vn 0.9960 0.0738 -0.0509
vn 0.9981 0.0483 -0.0387
vn 0.9212 0.2033 0.3316
vn -0.5936 -0.5770 0.5610
vn -0.0424 -0.5889 0.8071
vn -0.7887 -0.6085 0.0875
vn -0.6079 -0.7650 0.2126
vn -0.4331 -0.7752 0.4599
vn -0.0181 -0.8366 0.5475
vn 0.6173 0.5231 -0.5877
vn 0.6682 0.7371 -0.1013
vn 0.4792 0.7392 -0.4731
vn 0.8083 0.4039 -0.4284
vn 0.9948 0.1013 -0.0106
vn -0.3475 -0.5672 0.7467
vn -0.2842 -0.5813 0.7624
vn -0.2605 -0.7121 0.6520
vn -0.0794 0.2786 0.9571
vn 0.6423 0.2189 0.7346
vn -0.0406 -0.4901 -0.8707
vn 0.7412 -0.2946 -0.6032
vn -0.9987 -0.0487 -0.0166
vn -0.8601 -0.2679 -0.4341
vn -0.8449 0.0915 0.5270
g Calcetin1.001_norvedem-sock.002_Blanco
usemtl Blanco
s 1
f 58/1/1 59/2/2 60/3/3 61/4/4
f 81/5/5 82/6/6 61/4/4 83/7/7
f 84/8/8 85/9/9 86/10/10 83/7/7
f 60/3/3 84/8/8 83/7/7 61/4/4
f 87/11/11 81/5/5 83/7/7 86/10/10
f 88/12/12 89/13/13 90/14/14 91/15/15
f 105/16/16 106/17/17 107/18/18 108/19/19
f 109/20/20 110/21/21 86/10/10 85/9/9
f 104/22/22 58/1/1 61/4/4 82/6/6
f 103/23/23 87/11/11 86/10/10 110/21/21
f 91/15/15 90/14/14 111/24/24 112/25/25
f 108/19/19 107/18/18 75/26/26 74/27/27
f 113/28/28 114/29/29 115/30/30 116/31/31
f 117/32/32 118/33/33 114/29/29 113/28/28
f 113/28/28 121/34/34 122/35/35 117/32/32
f 116/31/31 123/36/36 121/34/34 113/28/28
f 75/26/26 107/18/18 58/1/1 104/22/22
f 107/18/18 106/17/17 59/2/2 58/1/1
f 114/29/29 108/19/19 74/27/27 115/30/30
f 118/33/33 105/16/16 108/19/19 114/29/29
f 89/13/13 103/23/23 110/21/21 90/14/14
f 111/24/24 90/14/14 110/21/21 109/20/20
f 121/34/34 91/15/15 112/25/25 122/35/35
f 123/36/36 88/12/12 91/15/15 121/34/34
f 129/37/37 128/38/38 127/39/39
f 129/37/37 130/40/40 131/41/41 132/42/42
f 133/43/43 134/44/44 131/41/41 130/40/40
f 135/45/45 136/46/46 134/44/44 133/43/43
f 138/47/47 135/45/45 133/43/43 139/48/48
f 139/48/48 133/43/43 130/40/40 140/49/49
f 141/50/50 140/49/49 130/40/40 129/37/37
f 141/50/50 129/37/37 127/39/39
f 129/37/37 132/42/42 128/38/38
g Calcetin1.001_norvedem-sock.002_red
usemtl red
f 1/51/51 2/52/52 3/53/53
f 4/54/54 5/55/55 6/56/56
f 7/57/57 8/58/58 9/59/59
f 10/60/60 11/61/61 12/62/62
f 13/63/63 14/64/64 11/61/61 10/60/60
f 15/65/65 3/53/53 16/66/66
f 17/67/67 18/68/68 19/69/69 20/70/70
f 21/71/71 22/72/72 23/73/73 24/74/74
f 25/75/75 26/76/76 27/77/77 28/78/78
f 29/79/79 30/80/80 31/81/81 32/82/82
f 33/83/83 34/84/84 35/85/85 36/86/86
f 37/87/87 1/51/51 38/88/88 39/89/89
f 40/90/90 41/91/91 42/92/92
f 43/93/93 42/92/92 44/94/94
f 44/94/94 42/92/92 45/95/95
f 46/96/96 41/91/91 47/97/97 48/98/98
f 14/64/64 36/86/86 35/85/85 49/99/99
f 5/55/55 49/99/99 35/85/85 50/100/100
f 26/76/76 51/101/101 52/102/102 27/77/77
f 20/70/70 19/69/69 52/102/102 51/101/101
f 11/61/61 53/103/103 15/65/65
f 38/88/88 1/51/51 54/104/104 55/105/105
f 30/80/80 38/88/88 55/105/105 56/106/106
f 54/104/104 57/107/107 55/105/105
f 24/74/74 56/106/106 55/105/105 57/107/107
f 62/108/108 63/109/109 64/110/110 65/111/111
f 66/112/112 67/113/113 13/63/63 10/60/60
f 68/114/114 43/93/93 44/94/94
f 69/115/115 70/116/116 29/79/79 32/82/82
f 71/117/117 68/114/114 44/94/94
f 2/52/52 72/118/118 3/53/53
f 37/87/87 39/89/89 70/116/116 72/118/118
f 68/114/114 73/119/119 40/90/90
f 74/27/27 75/26/26 76/120/120 77/121/121
f 7/57/57 72/118/118 70/116/116 21/71/71
f 6/56/56 78/122/122 79/123/123 67/113/113
f 66/112/112 80/124/124 9/59/59 4/54/54
f 22/72/72 69/115/115 92/125/125
f 77/121/121 76/120/120 93/126/126 94/127/127
f 95/128/128 96/129/129 69/115/115
f 23/73/73 97/130/130 98/131/131 99/132/132
f 31/81/81 99/132/132 98/131/131 100/133/133
f 101/134/134 102/135/135 89/13/13 88/12/12
f 28/78/78 27/77/77 87/11/11 103/23/23
f 27/77/77 52/102/102 81/5/5 87/11/11
f 18/68/68 76/120/120 75/26/26 104/22/22
f 52/102/102 19/69/69 82/6/6 81/5/5
f 64/110/110 119/136/136 120/137/137 65/111/111
f 116/31/31 115/30/30 119/136/136 64/110/110
f 64/110/110 63/109/109 123/36/36 116/31/31
f 124/138/138 101/134/134 63/109/109 62/108/108
f 19/69/69 18/68/68 104/22/22 82/6/6
f 93/126/126 76/120/120 18/68/68 17/67/67
f 119/136/136 77/121/121 94/127/127 120/137/137
f 115/30/30 74/27/27 77/121/121 119/136/136
f 102/135/135 28/78/78 103/23/23 89/13/13
f 125/139/139 25/75/75 28/78/78 102/135/135
f 125/139/139 102/135/135 101/134/134 124/138/138
f 63/109/109 101/134/134 88/12/12 123/36/36
f 126/140/140 127/39/39 128/38/38
f 135/45/45 137/141/141 136/46/46
f 141/50/50 127/39/39 142/142/142
f 126/140/140 142/142/142 127/39/39
f 135/45/45 138/47/47 137/141/141
f 4/54/54 6/56/56 67/113/113 66/112/112
f 12/62/62 80/124/124 66/112/112 10/60/60
f 143/143/143 144/144/144 49/99/99 5/55/55
f 11/61/61 14/64/64 49/99/99 144/144/144
f 145/145/145 36/86/86 14/64/64 13/63/63
f 6/56/56 50/100/100 78/122/122
f 8/58/58 53/103/103 144/144/144 143/143/143
f 45/95/95 71/117/117 44/94/94
f 73/119/119 41/91/91 40/90/90
f 33/83/83 36/86/86 145/145/145 146/146/146
f 34/84/84 46/96/96 50/100/100 35/85/85
f 42/92/92 41/91/91 46/96/96 34/84/84
f 45/95/95 33/83/83 146/146/146 147/147/147
f 50/100/100 46/96/96 48/98/98 78/122/122
f 45/95/95 42/92/92 34/84/84 33/83/83
f 45/95/95 147/147/147 71/117/117
f 73/119/119 47/97/97 41/91/91
f 43/93/93 40/90/90 42/92/92
f 57/107/107 54/104/104 53/103/103 8/58/58
f 1/51/51 15/65/65 53/103/103 54/104/104
f 11/61/61 16/66/66 12/62/62
f 9/59/59 143/143/143 4/54/54
f 1/51/51 37/87/87 2/52/52
f 15/65/65 1/51/51 3/53/53
f 23/73/73 99/132/132 56/106/106 24/74/74
f 31/81/81 30/80/80 56/106/106 99/132/132
f 39/89/89 38/88/88 30/80/80 29/79/79
f 21/71/71 57/107/107 7/57/57
f 148/148/148 32/82/82 149/149/149
f 149/149/149 31/81/81 100/133/133
f 149/149/149 32/82/82 31/81/81
f 22/72/72 150/150/150 151/151/151
f 151/151/151 23/73/73 22/72/72
f 151/151/151 97/130/130 23/73/73
f 6/56/56 5/55/55 50/100/100
f 4/54/54 143/143/143 5/55/55
f 9/59/59 8/58/58 143/143/143
f 68/114/114 47/97/97 73/119/119
f 68/114/114 40/90/90 43/93/93
f 71/117/117 147/147/147 68/114/114
f 9/59/59 80/124/124 72/118/118 7/57/57
f 145/145/145 79/123/123 152/152/152 146/146/146
f 13/63/63 67/113/113 79/123/123 145/145/145
f 68/114/114 152/152/152 48/98/98 47/97/97
f 146/146/146 152/152/152 68/114/114 147/147/147
f 79/123/123 78/122/122 48/98/98 152/152/152
f 80/124/124 12/62/62 16/66/66
f 80/124/124 16/66/66 3/53/53 72/118/118
f 2/52/52 37/87/87 72/118/118
f 29/79/79 70/116/116 39/89/89
f 21/71/71 70/116/116 69/115/115 22/72/72
f 69/115/115 96/129/129 92/125/125
f 92/125/125 153/153/153 22/72/72
f 153/153/153 150/150/150 22/72/72
f 69/115/115 32/82/82 95/128/128
f 32/82/82 148/148/148 154/154/154
f 95/128/128 32/82/82 154/154/154
f 11/61/61 15/65/65 16/66/66
f 11/61/61 144/144/144 53/103/103
f 7/57/57 57/107/107 8/58/58
f 21/71/71 24/74/74 57/107/107
