# This file uses centimeters as units for non-parametric coordinates.

mtllib star.mtl
g default
v 0.000000 0.314244 0.000735
v 0.000000 0.242910 0.094115
v 0.000000 0.243221 0.094544
v 0.000000 0.355474 0.056011
v 0.000000 0.354074 0.055557
v 0.000000 0.422239 0.152710
v 0.000000 0.422743 0.152547
v 0.000000 0.420784 0.033882
v 0.000000 0.419920 0.035071
v 0.000000 0.533382 0.000265
v 0.000000 0.533382 -0.000265
v 0.000000 0.419920 -0.035071
v 0.000000 0.420784 -0.033882
v 0.000000 0.422743 -0.152547
v 0.000000 0.422239 -0.152710
v 0.000000 0.354074 -0.055557
v 0.000000 0.355474 -0.056011
v 0.000000 0.242910 -0.094115
v 0.000000 0.243221 -0.094544
v 0.000000 0.314244 -0.000735
v -0.000388 0.320822 0.157897
v -0.000151 0.000249 0.271074
v -0.075884 0.371260 0.002194
v -0.000151 -0.000063 0.270644
v -0.000388 0.206637 0.000736
v -0.075884 0.370306 0.000881
v -0.000388 0.506975 0.098322
v -0.000151 0.515551 0.438177
v -0.075884 0.374479 0.002237
v -0.000151 0.515045 0.438343
v -0.000388 0.322222 0.158352
v -0.075884 0.372936 0.002739
v -0.000388 0.507841 -0.097131
v -0.000151 0.833714 -0.000266
v -0.075884 0.375515 -0.000811
v -0.000151 0.833714 0.000266
v -0.000388 0.507841 0.097131
v -0.075884 0.375515 0.000811
v -0.000388 0.322222 -0.158352
v -0.000151 0.515045 -0.438343
v -0.075884 0.372936 -0.002739
v -0.000151 0.515551 -0.438177
v -0.000388 0.506975 -0.098322
v -0.075884 0.374479 -0.002237
v -0.000388 0.206637 -0.000736
v -0.000151 -0.000063 -0.270644
v -0.075884 0.370306 -0.000881
v -0.000151 0.000249 -0.271074
v -0.000388 0.320822 -0.157897
v -0.075884 0.371260 -0.002194
v -0.000000 0.000259 0.271067
v 0.000000 0.320848 0.157817
v 0.000000 0.322248 0.158271
v 0.000000 0.515043 0.438330
v 0.000000 0.515547 0.438166
v 0.000000 0.506907 0.098271
v 0.000000 0.507772 0.097082
v 0.000000 0.833702 0.000265
v 0.000000 0.833702 -0.000265
v 0.000000 0.507772 -0.097082
v 0.000000 0.506907 -0.098271
v 0.000000 0.515547 -0.438166
v 0.000000 0.515043 -0.438330
v 0.000000 0.322248 -0.158271
v 0.000000 0.320848 -0.157817
v -0.000000 0.000259 -0.271067
v -0.000000 -0.000052 -0.270638
v 0.000000 0.206722 -0.000735
v 0.000000 0.206722 0.000735
v -0.000000 -0.000053 0.270638
v -0.075884 0.373715 0.000226
v -0.075884 0.372107 -0.000296
vt 0.265783 0.734007
vt 0.282001 0.670816
vt 0.280707 0.670009
vt 0.233282 0.713996
vt 0.265258 0.733350
vt 0.256796 0.771101
vt 0.321905 0.767456
vt 0.321835 0.766334
vt 0.257258 0.770399
vt 0.218741 0.774016
vt 0.242233 0.834494
vt 0.243043 0.834504
vt 0.219551 0.774238
vt 0.204208 0.738723
vt 0.153945 0.780313
vt 0.154431 0.780931
vt 0.204247 0.739563
vt 0.178301 0.679046
vt 0.177596 0.679449
vt 0.232496 0.714292
vt 0.238864 0.261810
vt 0.364672 0.489562
vt 0.330061 0.304042
vt 0.237861 0.262595
vt 0.225360 0.362246
vt 0.364528 0.489590
vt 0.239512 0.259200
vt 0.494775 0.210448
vt 0.307819 0.185671
vt 0.239437 0.260555
vt 0.330388 0.303225
vt 0.494783 0.210653
vt 0.237228 0.258199
vt 0.269378 0.000155
vt 0.188443 0.170604
vt 0.238299 0.258375
vt 0.307078 0.185013
vt 0.269610 0.000202
vt 0.235574 0.260075
vt 0.000193 0.149691
vt 0.136367 0.279235
vt 0.236041 0.259074
vt 0.187594 0.171025
vt 0.000250 0.149558
vt 0.236488 0.262256
vt 0.058682 0.452058
vt 0.224595 0.362071
vt 0.235517 0.261559
vt 0.136787 0.279885
vt 0.058545 0.451922
vt 0.320212 0.711213
vt 0.370562 0.530800
vt 0.482489 0.807044
vt 0.320843 0.711827
vt 0.295295 0.815821
vt 0.482437 0.808724
vt 0.253678 0.999765
vt 0.294904 0.816613
vt 0.188105 0.824448
vt 0.252057 0.999418
vt 0.000305 0.842130
vt 0.187232 0.824322
vt 0.146777 0.725172
vt 0.000000 0.841431
vt 0.071704 0.552077
vt 0.146627 0.724303
vt 0.228423 0.655188
vt 0.072749 0.551467
vt 0.369629 0.530060
vt 0.229204 0.654777
vt 0.237189 0.260962
vt 0.237655 0.259784
vt 0.330403 0.304171
vt 0.364790 0.489691
vt 0.364529 0.489721
vt 0.225250 0.362658
vt 0.308119 0.185390
vt 0.494941 0.210336
vt 0.494976 0.210673
vt 0.330707 0.303368
vt 0.188280 0.170359
vt 0.269328 0.000000
vt 0.269703 0.000047
vt 0.307394 0.184766
vt 0.136151 0.279402
vt 0.000000 0.149699
vt 0.000090 0.149418
vt 0.187478 0.170782
vt 0.224534 0.362442
vt 0.058656 0.452199
vt 0.058382 0.451977
vt 0.136463 0.279952
vn 1.000000 0.000000 0.000000
vn 1.000000 0.000000 0.000000
vn 1.000000 0.000000 0.000000
vn 1.000000 0.000000 0.000000
vn 1.000000 0.000000 0.000000
vn -1.000000 0.000000 0.000000
vn 1.000000 0.000000 0.000000
vn 1.000000 0.000000 0.000000
vn 1.000000 0.000000 0.000000
vn 1.000000 0.000000 0.000000
vn 1.000000 0.000000 0.000000
vn 1.000000 0.000000 0.000000
vn -1.000000 0.000000 0.000000
vn 1.000000 0.000000 0.000000
vn 1.000000 0.000000 0.000000
vn 1.000000 0.000000 0.000000
vn 1.000000 0.000000 0.000000
vn 1.000000 0.000000 0.000000
vn 1.000000 0.000000 0.000000
vn -1.000000 0.000000 0.000000
vn 1.000000 0.000000 0.000000
vn 1.000000 0.000000 0.000000
vn 1.000000 0.000000 0.000000
vn 1.000000 0.000000 0.000000
vn 1.000000 0.000000 0.000000
vn 1.000000 0.000000 0.000000
vn -1.000000 0.000000 0.000000
vn 1.000000 0.000000 0.000000
vn 1.000000 0.000000 0.000000
vn 1.000000 0.000000 0.000000
vn 1.000000 0.000000 0.000000
vn 1.000000 0.000000 0.000000
vn 1.000000 0.000000 0.000000
vn 1.000000 0.000000 0.000000
vn 1.000000 0.000000 0.000000
vn 1.000000 0.000000 0.000000
vn 1.000000 0.000000 0.000000
vn 1.000000 0.000000 0.000000
vn 1.000000 0.000000 0.000000
vn 1.000000 0.000000 0.000000
vn 1.000000 0.000000 0.000000
vn -1.000000 0.000000 0.000000
vn -0.865004 0.166474 0.473344
vn -0.865004 0.166474 0.473344
vn -0.865004 0.166474 0.473344
vn -0.865004 -0.398734 -0.304598
vn -0.865004 -0.398734 -0.304598
vn -0.865004 -0.398734 -0.304598
vn -0.865004 0.501621 -0.012055
vn -0.865004 0.501621 -0.012055
vn -0.865004 0.501621 -0.012055
vn -0.865004 -0.412906 0.285092
vn -0.865004 -0.412906 0.285092
vn -0.865004 -0.412906 0.285092
vn -0.865004 0.143544 -0.480795
vn -0.865004 0.143544 -0.480795
vn -0.865004 0.143544 -0.480795
vn -0.865004 0.143544 0.480795
vn -0.865004 0.143544 0.480795
vn -0.865004 0.143544 0.480795
vn -0.865003 -0.412906 -0.285093
vn -0.865003 -0.412906 -0.285093
vn -0.865003 -0.412906 -0.285093
vn -0.865004 0.501621 0.012055
vn -0.865004 0.501621 0.012055
vn -0.865004 0.501621 0.012055
vn -0.865004 -0.398734 0.304598
vn -0.865004 -0.398734 0.304598
vn -0.865004 -0.398734 0.304598
vn -0.865004 0.166475 -0.473344
vn -0.865004 0.166475 -0.473344
vn -0.865004 0.166475 -0.473344
vn 1.000000 0.000000 0.000000
vn 1.000000 0.000000 0.000000
vn 1.000000 0.000000 0.000000
vn 1.000000 0.000000 0.000000
vn 1.000000 0.000000 0.000000
vn 1.000000 0.000000 0.000000
vn 1.000000 0.000000 0.000000
vn 1.000000 0.000000 0.000000
vn 1.000000 0.000000 0.000000
vn 1.000000 0.000000 0.000000
vn 1.000000 0.000000 0.000000
vn 1.000000 0.000000 0.000000
vn 1.000000 0.000000 0.000000
vn 1.000000 0.000000 0.000000
vn 1.000000 0.000000 0.000000
vn 1.000000 0.000000 0.000000
vn 1.000000 0.000000 0.000000
vn 1.000000 0.000000 0.000000
vn 1.000000 0.000000 0.000000
vn 1.000000 0.000000 0.000000
vn 1.000000 0.000000 0.000000
vn 1.000000 0.000000 0.000000
vn 1.000000 0.000000 0.000000
vn 1.000000 0.000000 0.000000
vn 1.000000 0.000000 0.000000
vn 1.000000 0.000000 0.000000
vn 1.000000 0.000000 0.000000
vn 1.000000 0.000000 0.000000
vn 1.000000 0.000000 0.000000
vn 1.000000 0.000000 0.000000
vn 1.000000 0.000000 0.000000
vn 1.000000 0.000000 0.000000
vn 1.000000 0.000000 0.000000
vn 1.000000 0.000000 0.000000
vn 1.000000 0.000000 0.000000
vn 1.000000 0.000000 0.000000
vn 1.000000 0.000000 0.000000
vn 1.000000 0.000000 0.000000
vn 1.000000 0.000000 0.000000
vn 1.000000 0.000000 0.000000
vn -1.000000 0.000000 0.000000
vn -1.000000 0.000000 0.000000
vn -1.000000 0.000000 0.000000
vn -1.000000 0.000000 0.000000
vn -0.908050 -0.418861 0.000000
vn -0.908050 -0.418861 0.000000
vn -0.908050 -0.418861 0.000000
vn -0.908050 -0.418861 0.000000
vn -0.986614 -0.131930 -0.095852
vn -0.986614 -0.131930 -0.095852
vn -0.986614 -0.131930 -0.095852
vn -0.986614 -0.131930 -0.095852
vn -0.908050 -0.129434 -0.398361
vn -0.908050 -0.129434 -0.398361
vn -0.908050 -0.129434 -0.398361
vn -0.908050 -0.129434 -0.398361
vn -0.986614 0.050391 -0.155091
vn -0.986614 0.050391 -0.155091
vn -0.986614 0.050391 -0.155091
vn -0.986614 0.050391 -0.155091
vn -0.908050 0.338866 -0.246200
vn -0.908050 0.338866 -0.246200
vn -0.908050 0.338866 -0.246200
vn -0.908050 0.338866 -0.246200
vn -0.986614 0.163072 0.000000
vn -0.986614 0.163072 0.000000
vn -0.986614 0.163072 0.000000
vn -0.986614 0.163072 0.000000
vn -0.908051 0.338865 0.246200
vn -0.908051 0.338865 0.246200
vn -0.908051 0.338865 0.246200
vn -0.908051 0.338865 0.246200
vn -0.986614 0.050390 0.155092
vn -0.986614 0.050390 0.155092
vn -0.986614 0.050390 0.155092
vn -0.986614 0.050390 0.155092
vn -0.908050 -0.129435 0.398360
vn -0.908050 -0.129435 0.398360
vn -0.908050 -0.129435 0.398360
vn -0.908050 -0.129435 0.398360
vn -0.986614 -0.131930 0.095849
vn -0.986614 -0.131930 0.095849
vn -0.986614 -0.131930 0.095849
vn -0.986614 -0.131930 0.095849
vn 1.000000 0.000000 0.000000
vn 1.000000 0.000000 0.000000
vn 1.000000 0.000000 0.000000
vn 1.000000 0.000000 0.000000
vn 1.000000 0.000000 0.000000
vn 1.000000 0.000000 0.000000
vn 1.000000 0.000000 0.000000
vn 1.000000 0.000000 0.000000
vn 1.000000 0.000000 0.000000
vn 1.000000 0.000000 0.000000
vn 1.000000 0.000000 0.000000
vn 1.000000 0.000000 0.000000
vn 1.000000 0.000000 0.000000
vn 1.000000 0.000000 0.000000
vn 1.000000 0.000000 0.000000
vn 1.000000 0.000000 0.000000
vn 1.000000 0.000000 0.000000
vn 1.000000 0.000000 0.000000
vn 1.000000 0.000000 0.000000
vn 1.000000 0.000000 0.000000
vn 1.000000 0.000000 0.000000
vn 1.000000 0.000000 0.000000
vn 1.000000 0.000000 0.000000
vn 1.000000 0.000000 0.000000
vn 1.000000 0.000000 0.000000
vn 1.000000 0.000000 0.000000
vn 1.000000 0.000000 0.000000
vn 1.000000 0.000000 0.000000
vn 1.000000 0.000000 0.000000
vn 1.000000 0.000000 0.000000
vn 1.000000 0.000000 0.000000
vn 1.000000 0.000000 0.000000
vn 1.000000 0.000000 0.000000
vn 1.000000 0.000000 0.000000
vn 1.000000 0.000000 0.000000
vn 1.000000 0.000000 0.000000
vn 1.000000 0.000000 0.000000
vn 1.000000 0.000000 0.000000
vn 1.000000 0.000000 0.000000
vn 1.000000 0.000000 0.000000
vn -1.000000 0.000000 0.000000
vn -1.000000 0.000000 0.000000
vn -1.000000 0.000000 0.000000
vn -1.000000 0.000000 0.000000
vn -1.000000 0.000000 0.000000
vn -1.000000 0.000000 0.000000
vn -1.000000 0.000000 0.000000
vn -1.000000 0.000000 0.000000
vn -1.000000 0.000000 0.000000
vn -1.000000 0.000000 0.000000
vn -1.000000 0.000000 0.000000
vn -1.000000 0.000000 0.000000
vn -1.000000 0.000000 0.000000
vn -1.000000 0.000000 0.000000
vn -1.000000 0.000000 0.000000
vn -1.000000 0.000000 0.000000
vn -1.000000 0.000000 0.000000
vn -1.000000 0.000000 0.000000
vn -1.000000 0.000000 0.000000
vn -1.000000 0.000000 0.000000
vn 0.131923 0.330129 0.934672
vn 0.131923 0.330129 0.934672
vn 0.131923 0.330129 0.934672
vn 0.131923 0.330129 0.934672
vn 0.131912 -0.786911 -0.602802
vn 0.131912 -0.786911 -0.602802
vn 0.131912 -0.786911 -0.602802
vn 0.131912 -0.786911 -0.602802
vn 0.131924 0.990941 -0.025142
vn 0.131924 0.990941 -0.025142
vn 0.131924 0.990941 -0.025142
vn 0.131924 0.990941 -0.025142
vn 0.131918 -0.816467 0.562121
vn 0.131918 -0.816467 0.562121
vn 0.131918 -0.816467 0.562121
vn 0.131918 -0.816467 0.562121
vn 0.131923 0.282306 -0.950210
vn 0.131923 0.282306 -0.950210
vn 0.131923 0.282306 -0.950210
vn 0.131923 0.282306 -0.950210
vn 0.131926 0.282306 0.950210
vn 0.131926 0.282306 0.950210
vn 0.131926 0.282306 0.950210
vn 0.131926 0.282306 0.950210
vn 0.131934 -0.816465 -0.562120
vn 0.131934 -0.816465 -0.562120
vn 0.131934 -0.816465 -0.562120
vn 0.131934 -0.816465 -0.562120
vn 0.131924 0.990941 0.025142
vn 0.131924 0.990941 0.025142
vn 0.131924 0.990941 0.025142
vn 0.131924 0.990941 0.025142
vn 0.131906 -0.786912 0.602802
vn 0.131906 -0.786912 0.602802
vn 0.131906 -0.786912 0.602802
vn 0.131906 -0.786912 0.602802
vn 0.131923 0.330129 -0.934672
vn 0.131923 0.330129 -0.934672
vn 0.131923 0.330129 -0.934672
vn 0.131923 0.330129 -0.934672
vn 0.214422 -0.976741 0.000000
vn 0.214422 -0.976741 0.000000
vn 0.214422 -0.976741 0.000000
vn 0.214422 -0.976741 0.000000
vn 0.081716 -0.806325 -0.585800
vn 0.081716 -0.806325 -0.585800
vn 0.081716 -0.806325 -0.585800
vn 0.081716 -0.806325 -0.585800
vn 0.214424 -0.301829 -0.928936
vn 0.214424 -0.301829 -0.928936
vn 0.214424 -0.301829 -0.928936
vn 0.214424 -0.301829 -0.928936
vn 0.081732 0.307944 -0.947887
vn 0.081732 0.307944 -0.947887
vn 0.081732 0.307944 -0.947887
vn 0.081732 0.307944 -0.947887
vn 0.214440 0.790198 -0.574111
vn 0.214440 0.790198 -0.574111
vn 0.214440 0.790198 -0.574111
vn 0.214440 0.790198 -0.574111
vn 0.081722 0.996655 0.000000
vn 0.081722 0.996655 0.000000
vn 0.081722 0.996655 0.000000
vn 0.081722 0.996655 0.000000
vn 0.214440 0.790198 0.574111
vn 0.214440 0.790198 0.574111
vn 0.214440 0.790198 0.574111
vn 0.214440 0.790198 0.574111
vn 0.081732 0.307944 0.947887
vn 0.081732 0.307944 0.947887
vn 0.081732 0.307944 0.947887
vn 0.081732 0.307944 0.947887
vn 0.214424 -0.301829 0.928936
vn 0.214424 -0.301829 0.928936
vn 0.214424 -0.301829 0.928936
vn 0.214424 -0.301829 0.928936
vn 0.081716 -0.806325 0.585800
vn 0.081716 -0.806325 0.585800
vn 0.081716 -0.806325 0.585800
vn 0.081716 -0.806325 0.585800
s off
g Gold_Star:Star001
usemtl lambert3SG
f 4/1/1 3/2/2 2/3/3 1/4/4
f 4/1/5 5/5/6 3/2/7
f 8/6/8 7/7/9 6/8/10 4/1/11
f 8/6/12 9/9/13 7/7/14
f 12/10/15 11/11/16 10/12/17 8/6/18
f 12/10/19 13/13/20 11/11/21
f 16/14/22 15/15/23 14/16/24 12/10/25
f 16/14/26 17/17/27 15/15/28
f 4/1/29 16/14/30 12/10/31 8/6/32
f 18/18/33 16/14/34 4/1/35 1/4/36
f 18/18/37 19/19/38 16/14/39
f 18/18/40 1/4/41 20/20/42
f 23/21/43 22/22/44 21/23/45
f 26/24/46 25/25/47 24/26/48
f 29/27/49 28/28/50 27/29/51
f 32/30/52 31/31/53 30/32/54
f 35/33/55 34/34/56 33/35/57
f 38/36/58 37/37/59 36/38/60
f 41/39/61 40/40/62 39/41/63
f 44/42/64 43/43/65 42/44/66
f 47/45/67 46/46/68 45/47/69
f 50/48/70 49/49/71 48/50/72
f 3/2/73 5/5/74 52/51/75 51/52/76
f 4/1/77 6/8/78 54/53/79 53/54/80
f 7/7/81 9/9/82 56/55/83 55/56/84
f 8/6/85 10/12/86 58/57/87 57/58/88
f 11/11/89 13/13/90 60/59/91 59/60/92
f 12/10/93 14/16/94 62/61/95 61/62/96
f 15/15/97 17/17/98 64/63/99 63/64/100
f 16/14/101 19/19/102 66/65/103 65/66/104
f 18/18/105 20/20/106 68/67/107 67/68/108
f 1/4/109 2/3/110 70/69/111 69/70/112
f 41/39/113 72/71/114 71/72/115 44/42/116
f 26/24/117 47/45/118 45/47/119 25/25/120
f 47/45/121 50/48/122 48/50/123 46/46/124
f 50/48/125 41/39/126 39/41/127 49/49/128
f 41/39/129 44/42/130 42/44/131 40/40/132
f 44/42/133 35/33/134 33/35/135 43/43/136
f 35/33/137 38/36/138 36/38/139 34/34/140
f 38/36/141 29/27/142 27/29/143 37/37/144
f 29/27/145 32/30/146 30/32/147 28/28/148
f 32/30/149 23/21/150 21/23/151 31/31/152
f 23/21/153 26/24/154 24/26/155 22/22/156
f 2/3/157 3/2/158 51/52/159 70/69/160
f 5/5/161 4/1/162 53/54/163 52/51/164
f 6/8/165 7/7/166 55/56/167 54/53/168
f 9/9/169 8/6/170 57/58/171 56/55/172
f 10/12/173 11/11/174 59/60/175 58/57/176
f 13/13/177 12/10/178 61/62/179 60/59/180
f 14/16/181 15/15/182 63/64/183 62/61/184
f 17/17/185 16/14/186 65/66/187 64/63/188
f 19/19/189 18/18/190 67/68/191 66/65/192
f 20/20/193 1/4/194 69/70/195 68/67/196
f 44/42/197 71/72/198 38/36/199 35/33/200
f 47/45/201 72/71/202 41/39/203 50/48/204
f 38/36/205 71/72/206 32/30/207 29/27/208
f 71/72/209 72/71/210 23/21/211 32/30/212
f 47/45/213 26/24/214 23/21/215 72/71/216
f 52/73/217 21/23/218 22/22/219 51/74/220
f 70/75/221 24/26/222 25/25/223 69/76/224
f 56/77/225 27/29/226 28/28/227 55/78/228
f 54/79/229 30/32/230 31/31/231 53/80/232
f 60/81/233 33/35/234 34/34/235 59/82/236
f 58/83/237 36/38/238 37/37/239 57/84/240
f 64/85/241 39/41/242 40/40/243 63/86/244
f 62/87/245 42/44/246 43/43/247 61/88/248
f 68/89/249 45/47/250 46/46/251 67/90/252
f 66/91/253 48/50/254 49/49/255 65/92/256
f 45/47/257 68/89/258 69/76/259 25/25/260
f 67/90/261 46/46/262 48/50/263 66/91/264
f 65/92/265 49/49/266 39/41/267 64/85/268
f 63/86/269 40/40/270 42/44/271 62/87/272
f 61/88/273 43/43/274 33/35/275 60/81/276
f 59/82/277 34/34/278 36/38/279 58/83/280
f 57/84/281 37/37/282 27/29/283 56/77/284
f 55/78/285 28/28/286 30/32/287 54/79/288
f 53/80/289 31/31/290 21/23/291 52/73/292
f 24/26/293 70/75/294 51/74/295 22/22/296
